<?xml version="1.0" standalone="no"?>
<!DOCTYPE svg PUBLIC "-//W3C//DTD SVG 20010904//EN"
 "http://www.w3.org/TR/2001/REC-SVG-20010904/DTD/svg10.dtd">
<svg version="1.0" xmlns="http://www.w3.org/2000/svg"
 width="732.000000pt" height="732.000000pt" viewBox="0 0 732.000000 732.000000"
 preserveAspectRatio="xMidYMid meet">

<g transform="translate(0.000000,732.000000) scale(0.100000,-0.100000)"
fill="#000000" stroke="none">
<path d="M2985 7063 c-16 -2 -74 -25 -127 -49 l-98 -46 -64 16 c-81 21 -138
13 -181 -25 -31 -28 -35 -28 -85 -19 -64 12 -60 12 -60 1 0 -4 27 -14 61 -21
l60 -13 33 32 c33 32 35 33 107 28 41 -3 90 -8 110 -12 31 -6 51 0 122 35 55
26 105 43 140 47 76 8 181 -14 218 -44 66 -56 121 -238 123 -403 1 -72 -3 -93
-25 -139 l-26 -54 0 119 c0 88 -6 142 -22 205 -11 48 -21 92 -21 99 0 19 -42
110 -50 110 -5 0 -3 -12 5 -27 7 -16 16 -39 20 -53 6 -19 0 -14 -24 18 -51 69
-64 57 -49 -43 2 -11 -2 -19 -9 -18 -8 2 -6 -15 7 -52 29 -83 43 -241 35 -384
-4 -68 -9 -130 -12 -137 -3 -8 -20 -14 -39 -14 -38 0 -64 29 -64 72 0 15 -8
33 -18 40 -11 7 -25 31 -32 53 -17 57 -81 161 -135 222 -25 29 -80 75 -123
102 -42 28 -88 59 -102 69 -14 10 -52 22 -85 26 -33 5 -85 12 -115 16 -30 5
-66 10 -80 12 -81 10 -203 -388 -173 -564 12 -71 10 -80 -8 -46 -21 36 -18
283 5 388 33 153 73 255 121 303 15 15 23 27 17 27 -18 0 -74 -72 -100 -130
-14 -30 -36 -93 -48 -139 l-22 -84 -63 -22 c-215 -73 -370 -216 -486 -450 -74
-148 -109 -278 -183 -685 -46 -257 -84 -426 -110 -494 -6 -16 -8 -31 -6 -33 3
-3 0 -10 -5 -17 -5 -6 -29 -51 -53 -101 -24 -49 -69 -125 -99 -167 -31 -43
-53 -78 -49 -78 30 0 116 118 172 235 75 157 108 283 180 685 93 517 162 695
340 884 93 98 198 167 305 199 l50 14 -3 -130 c-5 -187 0 -213 54 -265 27 -26
40 -44 32 -46 -145 -42 -305 -152 -406 -278 -85 -107 -142 -248 -142 -351 0
-25 6 -18 37 44 53 108 178 230 293 286 88 42 178 73 214 73 14 0 0 -14 -44
-44 -79 -53 -130 -105 -164 -168 -33 -60 -33 -96 2 -144 16 -21 47 -71 69
-109 24 -42 62 -88 93 -114 56 -47 59 -61 30 -135 l-11 -29 -47 46 c-54 53
-66 56 -99 26 l-22 -22 9 34 c11 37 13 92 4 101 -3 4 -30 -42 -60 -100 -40
-79 -51 -108 -42 -114 10 -6 9 -8 -3 -8 -20 0 -33 -26 -30 -57 1 -11 -3 -24
-10 -29 -8 -5 -10 -3 -4 7 8 12 6 12 -8 0 -14 -11 -15 -16 -5 -29 10 -13 10
-14 0 -8 -7 4 -15 1 -18 -8 -3 -9 -10 -14 -14 -11 -11 7 -22 -24 -13 -37 3 -6
2 -8 -4 -5 -5 3 -19 -7 -31 -22 -16 -22 -18 -31 -9 -41 9 -10 9 -11 -1 -6 -8
5 -42 -23 -97 -82 -165 -175 -405 -343 -822 -575 -225 -125 -280 -151 -393
-187 -240 -77 -500 -190 -500 -217 0 -18 1 -18 90 27 131 66 266 115 435 159
88 23 212 56 275 75 119 35 179 37 101 4 -23 -10 -81 -44 -129 -76 -48 -33
-159 -106 -247 -164 -164 -108 -349 -259 -420 -343 -78 -92 -105 -130 -105
-149 0 -12 19 6 52 50 120 158 276 290 479 405 79 44 292 169 473 277 l330
197 174 170 c155 151 334 353 349 395 3 8 14 24 24 35 10 11 18 23 18 28 1 4
1 8 2 10 0 1 2 9 4 19 9 46 21 45 23 -2 3 -76 65 -163 125 -176 18 -3 38 -11
45 -16 15 -13 16 -100 1 -183 -14 -83 -17 -87 -61 -73 -54 16 -91 -3 -137 -71
-86 -127 -117 -231 -107 -361 l6 -75 -62 -41 c-35 -23 -101 -60 -148 -82 -265
-127 -592 -391 -775 -627 -27 -34 12 41 65 125 25 41 69 113 96 159 79 135
268 323 433 430 51 32 59 41 40 41 -71 0 -263 -124 -392 -253 -270 -271 -450
-587 -518 -907 -24 -115 -38 -373 -20 -384 6 -4 11 -22 11 -41 0 -19 4 -45 10
-59 11 -31 10 -31 -40 -6 -64 32 -110 80 -137 139 -30 67 -72 265 -74 341 l-1
55 -15 -35 c-25 -54 -30 -257 -8 -361 56 -283 186 -491 375 -603 36 -22 73
-46 84 -55 24 -21 153 -24 218 -6 l48 14 -16 -37 c-9 -20 -18 -43 -21 -49 -3
-7 -24 -18 -47 -23 -22 -6 -54 -15 -71 -20 -28 -8 -113 -28 -625 -146 -113
-26 -207 -49 -209 -51 -32 -25 337 48 729 146 107 27 196 48 197 47 1 -1 -8
-33 -20 -71 -20 -62 -25 -70 -62 -86 -46 -21 -397 -124 -655 -194 -175 -47
-195 -55 -189 -72 4 -10 199 33 384 85 60 17 111 29 113 27 2 -2 -13 -13 -35
-24 l-38 -20 61 -1 c55 0 71 5 150 49 49 27 89 48 90 48 0 -1 -1 -21 -4 -45
-6 -57 -19 -61 -186 -66 -123 -3 -186 -16 -186 -38 0 -4 -6 -8 -12 -8 -25 0
-133 -58 -157 -83 -13 -15 -59 -50 -102 -78 l-79 -52 0 -63 c0 -35 2 -64 4
-64 2 0 25 9 51 20 26 11 48 20 49 20 1 0 -1 -24 -4 -53 -5 -36 -21 -77 -53
-132 l-47 -80 0 -227 0 -227 57 35 c42 25 59 31 65 21 5 -7 2 -16 -8 -22 -91
-55 -109 -71 -112 -99 l-4 -29 40 34 c40 34 132 92 164 105 38 14 15 -31 -68
-131 -47 -58 -90 -107 -95 -111 -5 -3 -16 0 -24 6 -12 10 -14 7 -12 -19 1 -17
7 -31 13 -31 22 0 219 220 294 330 13 19 76 105 140 190 230 309 379 552 408
665 6 22 15 96 21 165 6 69 20 159 31 200 27 98 80 231 90 225 7 -4 30 36 42
75 3 8 9 -7 12 -35 25 -177 59 -289 92 -302 19 -7 45 6 52 26 3 10 0 10 -16 2
-11 -6 -23 -11 -26 -11 -14 0 -29 51 -57 192 -34 171 -34 228 1 341 23 75 70
137 104 137 23 0 96 -45 96 -60 0 -5 -14 -30 -31 -55 -49 -72 -61 -130 -66
-324 -5 -167 2 -242 28 -309 16 -42 74 -20 124 48 21 28 23 29 28 10 4 -15 -3
-26 -26 -42 -43 -28 -143 -126 -170 -163 -11 -16 13 4 55 45 41 41 94 88 117
104 48 34 60 27 61 -34 1 -19 5 -53 9 -75 6 -29 8 -14 5 52 -4 100 -14 130
-63 176 -37 36 -92 149 -98 204 -5 35 -1 46 20 67 15 15 20 26 13 26 -23 0
-44 -34 -49 -77 -5 -50 19 -125 63 -194 35 -54 34 -71 -7 -119 -30 -36 -59
-39 -67 -7 -31 125 -33 456 -2 536 21 56 82 137 122 162 38 23 111 25 141 4
26 -18 45 -72 43 -122 -3 -70 0 -103 10 -103 6 0 10 21 10 46 0 39 21 88 135
317 159 321 192 375 300 483 62 64 90 85 124 94 24 6 52 9 62 7 11 -3 17 -1
13 4 -9 15 -66 10 -109 -10 -49 -22 -162 -140 -220 -230 -23 -36 -62 -105 -85
-152 -38 -77 -47 -88 -89 -108 -56 -27 -87 -49 -79 -57 4 -3 24 6 45 20 58 40
66 34 36 -29 -15 -30 -30 -50 -33 -45 -10 16 -139 71 -267 115 l-123 41 61 60
c34 32 88 94 120 137 140 186 212 360 348 836 27 95 51 174 53 176 2 1 33 25
70 53 l67 50 9 -28 c6 -15 24 -38 40 -50 27 -20 30 -29 36 -98 22 -244 93
-531 190 -772 l53 -131 -40 -67 c-38 -63 -116 -171 -170 -237 l-25 -30 -29 21
c-16 12 -48 31 -71 43 l-42 21 29 58 c33 66 133 220 199 307 31 41 37 52 18
35 -83 -74 -240 -334 -329 -545 -90 -212 -119 -339 -89 -390 11 -20 12 -20 49
1 37 21 57 46 137 176 96 154 237 317 361 417 l75 60 44 -47 45 -47 -73 -75
c-97 -99 -167 -184 -249 -302 -69 -98 -97 -153 -194 -383 -80 -188 -113 -250
-184 -345 l-63 -85 -11 65 c-20 115 -121 308 -185 353 -11 7 -42 34 -69 59
-44 41 -50 51 -56 101 -4 34 -3 62 4 76 7 11 9 21 6 21 -13 0 -33 -67 -28 -95
6 -29 5 -29 -13 -14 -66 55 -31 13 84 -102 125 -124 137 -139 182 -234 56
-116 68 -160 60 -232 -5 -44 -12 -59 -45 -94 -60 -62 -151 -127 -238 -171
-129 -64 -180 -130 -305 -393 -31 -66 -94 -193 -139 -283 -46 -89 -83 -169
-83 -178 0 -8 -13 -41 -30 -74 -16 -33 -30 -62 -30 -65 0 -3 30 -5 66 -5 55 0
65 2 60 15 -3 9 -13 40 -21 69 -16 54 -16 54 16 125 17 39 35 71 39 71 4 0 13
-7 20 -15 18 -21 51 -19 57 5 5 18 16 19 260 19 141 0 260 4 264 8 5 5 -105 7
-244 5 -138 -2 -257 1 -263 5 -6 4 -14 40 -17 78 -6 69 -6 72 46 184 29 63 59
118 68 124 19 12 75 0 322 -70 88 -24 161 -43 163 -40 6 5 -378 114 -433 122
-24 4 -43 8 -43 11 0 2 25 41 55 87 69 106 112 145 222 201 49 24 97 53 107
65 11 11 23 21 28 21 6 0 46 -16 90 -35 44 -20 82 -34 85 -32 2 2 -32 19 -74
37 -43 19 -80 35 -82 37 -2 1 22 30 53 64 44 47 55 66 51 82 -5 16 -4 18 3 8
8 -11 12 -10 20 5 6 11 34 51 62 89 60 81 118 192 184 353 25 62 63 147 84
190 36 72 146 247 162 257 9 5 61 -56 124 -142 l38 -53 -51 0 c-29 0 -68 7
-89 15 -26 11 -38 13 -40 5 -3 -7 -17 0 -33 16 -16 15 -29 24 -29 20 0 -4 14
-19 30 -33 17 -13 30 -31 30 -38 0 -8 -20 -76 -44 -152 -106 -328 -214 -769
-342 -1398 -50 -241 -63 -280 -100 -289 -13 -4 -24 -11 -24 -16 0 -6 -16 -25
-35 -42 -20 -17 -33 -33 -30 -36 6 -6 52 15 77 36 35 29 104 24 245 -17 40
-12 85 -20 100 -20 16 1 -39 18 -120 38 -81 20 -145 40 -141 43 4 4 7 38 8 75
1 37 17 138 35 223 88 419 106 499 148 675 95 400 162 635 220 780 11 28 25
62 32 77 13 34 12 34 148 7 59 -12 120 -23 135 -24 33 -4 118 -35 118 -45 0
-3 -18 -49 -40 -101 -103 -241 -227 -594 -295 -844 -133 -490 -202 -905 -150
-905 10 0 13 21 14 83 0 89 18 180 76 380 20 71 35 131 32 133 -2 3 -17 -43
-32 -101 -16 -58 -30 -104 -32 -102 -2 3 8 60 23 128 65 311 172 675 285 969
34 88 46 110 62 110 14 0 17 -4 12 -17 -67 -168 -200 -561 -192 -569 2 -3 24
55 47 128 23 73 69 206 103 296 l60 162 83 0 c46 0 85 -4 88 -9 3 -5 -1 -28
-9 -51 -8 -24 -13 -45 -11 -47 2 -2 12 18 21 46 l17 51 57 0 c57 0 101 -19
101 -43 0 -7 11 -33 25 -59 14 -26 25 -56 25 -68 0 -11 4 -19 9 -17 12 3 116
-156 105 -160 -43 -15 -94 -57 -121 -98 -37 -56 -41 -93 -17 -151 11 -27 14
-54 10 -94 -9 -90 6 -169 39 -198 28 -24 42 -24 121 -6 20 5 20 4 7 -71 -7
-42 -16 -82 -20 -88 -4 -7 -65 -91 -137 -187 -71 -96 -158 -214 -193 -263
l-63 -87 222 0 223 0 59 138 c93 214 260 566 264 554 1 -5 -22 -157 -53 -337
-31 -180 -55 -334 -53 -343 2 -9 16 63 32 159 62 382 106 590 134 641 15 26
32 47 37 45 27 -9 83 -417 101 -739 l7 -118 178 0 c99 0 179 3 179 8 0 13 -79
272 -121 394 -27 80 -38 130 -35 155 2 21 1 30 -1 21 -4 -16 -23 -26 -23 -13
0 2 -9 28 -21 57 l-20 52 53 -51 c76 -71 112 -88 157 -74 47 14 89 54 112 106
11 24 29 47 45 53 50 23 93 64 114 108 19 38 20 48 10 80 -7 20 -9 56 -6 82 5
46 5 46 -7 15 l-12 -33 -27 34 -27 34 47 17 c26 10 111 44 189 77 138 58 143
59 195 49 66 -12 110 -28 216 -76 63 -29 82 -43 83 -59 1 -16 2 -17 6 -4 4 16
7 16 33 -3 15 -12 33 -18 39 -15 7 5 9 -4 4 -26 -11 -61 -160 -659 -165 -663
-3 -3 -40 0 -82 6 -116 16 -211 -10 -237 -65 -9 -18 -8 -19 3 -5 32 39 80 54
178 54 l96 0 131 -64 c160 -78 195 -82 262 -33 24 17 54 32 67 32 34 0 122
-35 179 -71 38 -24 45 -26 31 -10 -29 32 -139 83 -192 89 l-46 5 8 56 c15 119
-1 393 -32 536 -36 168 -141 463 -215 606 -21 42 -39 81 -39 87 0 19 30 21 76
4 144 -53 294 -348 365 -715 18 -93 39 -175 50 -192 10 -16 23 -36 28 -44 12
-18 45 -6 66 25 9 14 20 51 26 82 12 77 12 343 -1 472 -11 116 -62 359 -90
432 -10 26 -15 49 -12 52 3 4 19 6 35 6 91 0 186 -209 217 -477 30 -258 42
-550 26 -603 -6 -20 -4 -19 13 8 12 18 21 37 21 43 0 21 41 88 62 103 30 21
56 20 111 -4 35 -16 50 -30 66 -63 30 -62 43 -135 36 -195 -7 -59 -95 -286
-154 -399 -22 -42 -34 -70 -26 -62 20 20 98 182 129 267 14 40 33 87 43 105
18 34 24 160 10 209 -6 24 -4 28 19 34 32 8 68 -8 88 -39 9 -12 21 -58 27
-101 14 -101 -1 -148 -83 -268 -68 -99 -108 -138 -143 -138 -13 0 -27 -4 -30
-10 -8 -13 1 -12 47 0 27 8 54 30 105 90 116 134 117 137 118 270 0 89 -4 122
-16 145 -29 51 -54 68 -98 63 -37 -3 -41 -1 -56 31 -9 18 -14 36 -11 38 15 15
296 -62 296 -81 0 -3 -18 -45 -39 -93 -49 -110 -65 -171 -58 -229 7 -63 37
-94 94 -94 41 0 43 -1 43 -29 0 -16 -13 -66 -29 -110 l-28 -81 107 0 106 0
-27 58 c-28 59 -31 68 -100 319 -24 84 -45 150 -48 149 -3 -2 -6 12 -6 32 0
21 5 39 10 40 17 6 47 -99 40 -141 -3 -20 -2 -37 2 -37 16 0 55 146 64 234 7
78 24 158 46 216 9 25 22 -18 22 -78 1 -49 -1 -53 -19 -47 -11 3 -20 2 -20 -4
0 -5 9 -13 20 -16 11 -3 20 -11 20 -16 0 -5 6 -9 13 -9 9 0 26 39 45 102 65
214 80 291 83 436 3 82 1 94 -17 106 -21 15 -137 51 -195 60 l-36 6 -12 72
c-7 40 -20 91 -31 114 -19 45 -24 47 -135 56 -28 3 -34 11 -87 128 -83 181
-172 409 -208 533 l-32 108 56 122 c49 108 79 187 158 409 18 53 23 59 59 68
54 15 102 60 130 122 20 43 24 69 23 142 0 88 0 88 18 66 27 -34 64 -18 97 41
l25 46 -37 86 c-53 122 -50 196 7 181 24 -6 34 0 72 37 67 66 89 164 64 289
-5 25 -5 48 -1 53 4 4 24 0 45 -8 96 -40 130 5 123 160 -7 139 -23 177 -90
205 -29 12 -65 34 -80 49 -31 28 -67 91 -67 115 0 17 30 29 51 21 27 -10 43
13 49 72 8 69 -3 113 -40 168 -47 68 -47 80 0 111 47 32 55 54 46 136 -17 145
-116 327 -173 316 -10 -2 -19 -12 -21 -23 -7 -39 -21 -39 -38 1 -8 21 -50 74
-92 116 -65 66 -73 78 -56 83 58 19 64 24 64 58 0 63 -115 199 -197 234 -36
14 -38 14 -55 -7 -10 -12 -18 -30 -18 -40 0 -33 -25 -43 -62 -24 -84 43 -218
168 -218 203 0 8 12 27 26 43 25 25 26 29 12 50 -19 29 -103 95 -182 142 -43
26 -71 36 -102 36 -44 0 -54 -10 -54 -55 0 -54 -75 -35 -152 37 -43 40 -48 49
-48 89 0 58 -17 81 -82 109 -66 29 -172 33 -208 9 -23 -15 -28 -14 -84 8 -67
27 -180 57 -274 72 -47 7 -72 18 -97 39 -43 38 -118 56 -230 55 -124 -2 -164
-17 -194 -76 -21 -41 -30 -48 -83 -66 -43 -15 -60 -17 -63 -8 -2 7 -5 48 -8
92 -2 53 -11 96 -25 128 -28 62 -46 53 -22 -10 11 -30 19 -84 21 -140 l4 -92
-70 -30 c-81 -36 -143 -40 -168 -13 -10 10 -17 23 -17 29 0 18 -36 42 -75 51
l-39 8 45 44 c98 97 180 162 226 180 73 29 21 24 -60 -6 -104 -37 -193 -87
-277 -154 -41 -32 -75 -58 -76 -57 -1 1 2 25 6 52 13 73 12 199 -1 251 -20 80
-97 129 -163 105 -23 -9 -27 -7 -41 18 -19 38 -59 69 -104 80 -47 12 -148 20
-186 14z m424 -149 c27 -19 51 -71 51 -110 0 -23 -2 -25 -17 -13 -15 13 -16
11 -10 -13 5 -18 -2 -50 -19 -98 -15 -39 -29 -69 -31 -66 -2 2 -9 37 -14 77
-6 40 -24 109 -40 153 -16 44 -29 81 -29 83 0 11 90 0 109 -13z m-632 -243
c79 -62 150 -149 198 -242 l45 -87 -43 -14 c-23 -9 -49 -18 -57 -21 -10 -5
-23 6 -40 34 -42 69 -143 163 -214 200 -36 19 -66 37 -66 42 0 30 92 126 122
127 3 0 28 -17 55 -39z m1735 -41 c20 -6 47 -19 60 -30 l23 -19 -125 -1 c-69
0 -161 -7 -205 -15 -44 -8 -83 -15 -86 -15 -9 0 3 60 13 66 52 32 233 40 320
14z m268 -110 c314 -78 578 -267 733 -526 47 -79 47 -88 -1 -27 -191 239 -620
524 -790 523 l-47 -1 84 -40 c87 -41 228 -148 311 -235 l45 -48 -49 42 c-76
65 -155 114 -225 139 -35 13 -65 22 -68 20 -2 -2 23 -14 56 -26 92 -33 176
-94 296 -215 221 -222 391 -529 454 -817 27 -126 38 -348 22 -459 -18 -126
-56 -262 -101 -357 -22 -47 -37 -90 -33 -96 4 -6 1 -7 -7 -2 -10 6 -12 4 -7
-8 4 -10 2 -16 -5 -14 -6 1 -12 -3 -15 -9 -2 -6 4 -11 12 -11 45 0 149 312
176 527 12 99 7 288 -12 430 -12 91 -67 257 -121 364 -22 43 -38 80 -36 82 2
2 41 -21 86 -51 60 -40 83 -63 88 -83 4 -15 17 -48 30 -73 32 -65 54 -157 63
-268 5 -53 9 -78 11 -56 4 74 -1 130 -21 244 -11 62 -18 115 -15 118 10 10
117 -101 192 -199 164 -214 315 -482 369 -658 15 -47 29 -92 32 -100 3 -8 5
-26 5 -40 -2 -22 -1 -23 7 -5 9 23 27 -46 58 -220 24 -140 24 -549 0 -726 -21
-154 -55 -331 -67 -343 -5 -4 -4 10 1 32 10 48 55 391 64 502 7 73 -10 287
-25 339 l-8 26 -1 -25 c-1 -14 -8 -92 -16 -175 -48 -496 -201 -862 -480 -1141
-153 -155 -291 -243 -472 -305 -46 -15 -83 -26 -83 -23 0 3 -9 0 -20 -6 -11
-6 -71 -15 -133 -20 l-112 -9 117 3 118 3 -22 -36 c-65 -108 -134 -182 -277
-297 -196 -157 -504 -290 -841 -362 -192 -41 -193 -41 -306 18 -174 93 -442
288 -555 407 -41 43 -95 110 -121 148 -51 78 -133 235 -143 277 l-7 26 67 -24
c36 -13 74 -24 83 -23 9 0 -12 11 -48 23 -36 13 -84 33 -107 45 -24 11 -60 30
-82 41 -83 42 -317 268 -297 287 3 4 -7 20 -22 37 -25 27 -98 147 -93 154 1 1
-9 23 -22 50 -78 155 -128 411 -158 811 -10 140 -7 348 6 411 l6 25 -12 -25
c-15 -34 -65 -203 -90 -303 -16 -65 -22 -142 -31 -377 -12 -312 -4 -522 27
-679 8 -41 13 -76 11 -78 -6 -7 -54 203 -76 337 -31 183 -38 532 -15 706 21
160 41 256 59 293 8 15 17 46 20 68 10 86 61 240 133 402 183 410 442 744 735
944 111 76 194 102 457 142 l44 7 -34 -31 -34 -32 49 31 c28 16 58 30 68 30
10 0 18 4 18 8 0 29 163 42 257 22 197 -43 494 -174 643 -284 67 -49 174 -157
214 -214 26 -38 122 -299 113 -308 -2 -2 -25 27 -51 66 -26 38 -64 83 -83 101
-49 42 -64 23 -19 -24 52 -55 183 -267 242 -392 69 -145 140 -375 189 -605 31
-150 75 -372 75 -378 -1 -10 -97 270 -131 382 -54 178 -146 423 -155 414 -1
-2 6 -30 17 -63 72 -214 119 -570 103 -780 l-7 -96 -41 3 c-36 3 -42 6 -47 33
l-7 30 -1 -28 c-1 -28 -1 -28 -48 -21 -92 15 -303 9 -371 -11 -34 -10 -65 -22
-69 -28 -4 -7 1 -8 13 -3 59 23 152 36 256 36 143 0 340 -26 390 -51 21 -11
39 -19 40 -19 13 0 -26 340 -49 425 -3 13 -2 17 5 10 26 -27 92 -260 117 -416
10 -57 20 -106 22 -109 9 -9 -8 161 -33 330 -13 91 -24 169 -24 173 0 4 9 3
21 -3 30 -16 38 -2 11 20 -12 10 -27 20 -32 22 -6 2 -23 67 -39 145 -16 78
-34 151 -40 162 -6 11 -7 22 -3 25 11 6 117 -242 132 -309 7 -27 16 -63 20
-80 16 -52 39 -201 51 -318 6 -61 15 -125 20 -142 7 -26 8 -23 4 15 -2 25 -1
92 3 150 l7 105 13 -115 c19 -171 21 -180 40 -180 31 0 136 -57 184 -99 41
-37 48 -40 61 -26 16 15 40 111 52 203 4 29 9 51 12 49 7 -7 -25 -239 -37
-271 -14 -37 -13 -40 6 -21 33 33 23 4 -38 -110 -36 -68 -89 -149 -127 -193
-55 -64 -59 -72 -27 -47 21 16 65 58 97 94 70 77 68 57 -9 -74 -80 -137 -133
-207 -231 -306 -104 -103 -173 -146 -256 -160 l-50 -8 51 3 c70 4 225 81 329
164 l80 64 -60 -62 c-113 -116 -289 -236 -423 -287 -37 -14 -101 -29 -142 -33
-73 -7 -73 -7 -20 -9 74 -1 157 21 252 69 42 21 117 55 165 76 200 85 387 224
515 383 96 119 175 308 197 474 17 120 14 129 -18 60 -33 -69 -131 -226 -138
-220 -2 2 1 16 6 31 20 50 1 25 -38 -51 -63 -125 -135 -218 -285 -368 -140
-141 -148 -147 -64 -45 46 55 121 169 148 225 8 16 52 79 98 140 153 203 243
440 287 752 24 168 17 399 -14 495 -12 37 -25 69 -29 72 -5 3 -5 -23 -1 -57
13 -103 9 -366 -6 -472 -29 -193 -99 -432 -168 -570 -33 -67 -133 -225 -142
-225 -4 0 2 12 13 28 27 38 87 159 102 207 7 22 25 67 41 100 15 33 31 80 34
105 2 25 11 88 18 140 7 52 11 109 8 125 -4 20 -8 5 -13 -48 -12 -132 -90
-416 -115 -424 -7 -3 -4 20 7 59 10 35 28 111 39 170 19 98 20 123 11 325 -9
194 -18 285 -33 299 -2 3 -8 -33 -11 -78 -13 -147 -83 -476 -137 -646 l-21
-62 -26 19 c-33 23 -99 51 -121 51 -15 0 -17 22 -16 218 0 119 -4 251 -8 293
l-8 75 35 43 c39 47 44 60 21 57 -8 -1 -28 -22 -45 -47 -16 -25 -39 -54 -50
-64 -18 -16 -20 -17 -20 -1 0 9 11 38 24 64 88 176 120 492 76 757 -48 298
-183 654 -323 858 -22 31 -41 57 -43 57 -3 0 44 -111 105 -249 43 -97 91 -226
91 -245 0 -13 -94 142 -122 201 -35 75 -211 298 -280 354 -119 98 -239 163
-391 214 -167 55 -312 67 -457 36 l-45 -9 28 22 c43 35 184 85 262 94 l70 8
-67 8 c-167 20 -352 -34 -513 -148 -99 -71 -144 -129 -179 -231 -6 -16 -9 -17
-17 -5 -31 50 52 176 191 288 118 95 350 194 520 222 41 6 82 13 90 15 8 2 92
2 185 0 128 -3 191 -9 255 -25z m-1103 -16 c14 -4 23 -17 27 -39 7 -34 32 -50
85 -57 21 -3 17 -7 -30 -38 -74 -47 -191 -168 -219 -224 -12 -26 -24 -64 -27
-86 -4 -31 -10 -40 -25 -40 -32 0 -191 -56 -265 -94 -261 -131 -509 -368 -712
-681 -73 -112 -178 -309 -226 -425 -15 -36 -30 -69 -35 -73 -10 -11 -77 23
-136 68 -37 28 -55 35 -92 35 -26 0 -52 4 -58 8 -22 14 -25 51 -10 116 18 77
60 156 115 215 41 44 61 47 61 8 0 -47 15 -67 88 -124 78 -61 129 -93 118 -75
-3 5 -37 34 -76 63 l-70 54 46 39 c62 53 99 138 116 270 2 13 22 -12 60 -75
32 -52 58 -90 58 -86 0 12 -49 107 -86 165 -33 51 -35 52 -80 52 l-47 0 6 56
c11 104 130 303 216 361 54 37 61 32 61 -43 l0 -65 98 -100 c54 -54 103 -99
109 -99 6 0 -31 41 -81 91 l-91 91 39 20 c57 29 119 97 152 166 27 56 44 77
44 52 0 -14 102 -221 107 -217 8 9 -131 304 -155 329 l-26 28 25 26 c60 65
227 158 265 148 17 -4 23 -16 27 -50 2 -25 14 -55 24 -67 11 -12 37 -51 58
-87 50 -85 83 -130 97 -130 6 0 2 10 -9 23 -11 12 -41 57 -66 100 -45 74 -46
77 -24 77 22 0 243 124 279 157 23 21 24 17 38 -142 7 -71 16 -137 21 -145 13
-23 11 50 -6 204 -13 120 -18 138 -40 160 -39 40 -33 52 40 73 43 12 176 17
212 7z m1546 -34 c77 -29 91 -48 82 -107 -4 -26 -9 -51 -12 -56 -2 -4 -24 9
-48 28 -23 20 -80 58 -125 85 -77 46 -81 50 -59 59 40 16 105 12 162 -9z m245
-274 l50 -11 -22 -42 -21 -42 -83 90 c-50 56 -82 100 -82 113 1 17 11 10 54
-38 45 -49 62 -60 104 -70z m177 70 c51 -24 180 -115 203 -144 18 -24 15 -31
-22 -49 -32 -15 -34 -20 -40 -77 -16 -150 -25 -275 -24 -326 0 -35 5 -10 13
70 7 69 16 152 19 186 l8 61 31 -30 c37 -34 198 -144 228 -155 18 -7 14 -14
-41 -77 -82 -94 -95 -123 -25 -55 73 71 121 136 130 178 4 18 13 36 20 38 37
14 159 -90 201 -171 l29 -56 -24 -20 c-13 -10 -31 -19 -40 -19 -19 -1 -95
-100 -142 -185 -40 -75 -30 -65 56 53 l68 94 69 -69 c65 -64 73 -78 80 -128 2
-11 6 -23 11 -26 7 -5 -188 -146 -222 -161 -11 -5 -12 -7 -2 -7 14 -1 95 45
201 116 88 58 90 60 90 88 0 68 98 -61 135 -178 28 -87 36 -180 19 -197 -7 -7
-65 -18 -130 -25 -145 -17 -184 -25 -184 -37 0 -6 8 -7 17 -4 28 11 95 24 162
31 63 7 64 7 58 -16 -6 -23 0 -37 63 -157 21 -40 22 -47 10 -101 l-12 -57 -55
4 c-64 5 -193 -15 -193 -30 0 -6 10 -8 23 -4 12 3 48 9 80 13 55 6 57 5 57
-18 0 -30 33 -95 69 -133 14 -16 49 -39 78 -52 66 -29 80 -51 93 -144 13 -93
5 -164 -24 -195 -20 -23 -22 -24 -61 -9 -79 29 -141 45 -195 49 -59 5 -49 0
52 -25 26 -7 50 -20 54 -29 3 -9 9 -60 12 -114 4 -76 1 -107 -12 -140 -18 -49
-86 -122 -86 -94 0 16 -64 55 -119 72 -40 12 -19 -16 23 -30 50 -17 50 -18 31
-55 -26 -50 -22 -106 14 -189 38 -89 38 -105 5 -148 -30 -39 -47 -42 -62 -8
-11 24 -92 74 -92 56 0 -5 14 -14 31 -20 21 -7 28 -14 22 -23 -4 -7 -8 -51 -8
-98 0 -74 -4 -93 -30 -144 -30 -60 -60 -89 -104 -101 -20 -6 -23 -4 -19 11 3
11 17 57 31 104 42 142 85 356 108 530 18 139 20 198 16 375 -7 304 -47 512
-144 755 -122 306 -268 533 -495 765 -92 95 -98 104 -128 190 -18 50 -58 140
-89 201 l-58 111 35 69 c20 38 36 83 37 99 1 17 3 31 4 33 4 8 43 -1 86 -22z
m-307 -241 c61 -57 134 -143 216 -254 14 -18 7 -15 -97 56 -43 29 -82 53 -87
53 -8 0 -200 265 -200 276 0 11 99 -66 168 -131z m-1048 53 c226 -55 390 -195
510 -438 40 -82 90 -203 90 -218 0 -4 -17 27 -38 68 -76 153 -185 289 -303
377 -75 57 -219 139 -283 161 -57 20 -229 52 -276 52 -59 0 -49 18 13 23 85 7
196 -3 287 -25z m-1683 -273 c-5 -14 -37 -19 -49 -7 -5 5 -6 26 -3 46 l7 37
24 -33 c13 -18 23 -37 21 -43z m-232 3 c-71 -96 -118 -202 -123 -275 -4 -65
-3 -68 41 -64 21 3 22 -9 3 -34 -12 -17 -16 -17 -46 -5 -43 18 -141 115 -162
160 -32 71 -32 95 2 134 55 62 161 125 227 135 111 16 109 19 58 -51z m2621
-440 c184 -195 343 -615 332 -878 l-3 -75 -38 109 c-38 107 -81 202 -111 241
-9 12 -3 -16 15 -69 16 -49 32 -101 34 -115 2 -14 13 -55 25 -90 11 -35 27
-102 35 -148 13 -76 13 -88 -1 -121 l-16 -37 -23 85 c-13 47 -37 119 -53 160
-41 102 -138 301 -144 295 -2 -3 -5 7 -5 23 0 15 -23 80 -52 146 -28 65 -51
126 -51 135 0 13 2 14 9 2 7 -11 12 -3 21 30 15 53 7 209 -15 289 -18 65 -17
60 -7 60 4 0 26 -19 48 -42z m-93 -220 c14 -54 23 -98 21 -98 -2 0 -14 19 -28
43 -17 28 -27 63 -30 106 -7 86 7 67 37 -51z m-2714 9 c9 -12 9 -16 -2 -20
-19 -7 -33 4 -39 30 -5 19 -3 21 11 13 10 -5 23 -15 30 -23z m3208 -129 c-3
-8 -6 -5 -6 6 -1 11 2 17 5 13 3 -3 4 -12 1 -19z m-3182 -290 c29 -13 30 -28
5 -83 l-19 -40 -1 30 c0 17 -7 47 -14 68 -15 40 -11 43 29 25z m-141 -299 c26
-11 54 -18 63 -15 12 5 14 1 9 -16 -16 -58 -55 -291 -62 -365 -6 -77 -15 -100
-27 -70 -4 9 -7 9 -14 -1 -7 -9 -17 -10 -41 -1 -17 6 -37 9 -44 6 -48 -17 -83
80 -82 228 0 110 20 174 71 228 32 33 64 34 127 6z m3241 -380 c4 -71 5 -133
1 -136 -3 -4 -6 6 -6 20 0 14 -9 72 -20 129 -19 100 -18 117 11 118 4 0 10
-59 14 -131z m-4328 35 c-3 -3 -12 -4 -19 -1 -8 3 -5 6 6 6 11 1 17 -2 13 -5z
m1253 -211 c0 -35 47 -266 67 -326 8 -27 12 -51 9 -54 -9 -9 -99 70 -114 101
-11 22 -11 49 2 161 9 74 16 139 16 145 0 6 5 8 10 5 6 -3 10 -18 10 -32z
m-183 -15 c-3 -7 -5 -2 -5 12 0 14 2 19 5 13 2 -7 2 -19 0 -25z m3660 -50 c-3
-7 -5 -2 -5 12 0 14 2 19 5 13 2 -7 2 -19 0 -25z m-3652 -127 c-8 -8 -34 27
-41 55 -4 13 3 36 18 57 l23 36 3 -71 c2 -39 0 -73 -3 -77z m-485 59 c-38 -19
-234 -190 -227 -196 2 -3 66 32 141 76 75 44 140 80 143 80 3 0 3 -26 1 -57
-4 -50 -9 -61 -38 -83 -18 -14 -62 -51 -99 -83 -36 -32 -118 -92 -181 -134
-189 -124 -280 -205 -280 -250 0 -4 26 18 58 48 31 31 77 71 102 90 43 32 42
30 -19 -36 -151 -163 -208 -266 -226 -414 l-13 -96 -1 65 c-1 95 13 169 53
267 20 48 34 88 33 89 -6 6 -65 -94 -83 -141 -30 -78 -23 -349 7 -304 8 11 9
8 8 -11 -3 -27 32 -114 58 -142 9 -10 13 -18 9 -18 -4 0 4 -14 18 -30 l25 -30
-19 -43 c-11 -23 -20 -50 -20 -59 0 -13 -19 -23 -70 -39 -38 -11 -77 -19 -87
-17 -40 8 -100 232 -90 338 14 138 54 269 127 409 69 132 251 375 327 436 26
22 91 80 143 131 106 102 197 174 220 174 8 -1 -1 -9 -20 -20z m4955 -21 c10
-14 1 -21 -19 -13 -9 3 -13 10 -10 15 7 12 21 11 29 -2z m-906 -158 c-6 -18
-14 -30 -17 -27 -2 3 1 19 8 36 7 17 14 29 16 27 2 -2 -1 -18 -7 -36z m-3371
-61 c59 -44 109 -126 188 -305 41 -92 41 -110 -2 -246 -31 -101 -94 -249 -105
-249 -11 0 -73 199 -99 315 -43 199 -69 572 -37 534 6 -9 31 -30 55 -49z
m4002 3 c0 -23 -4 -33 -9 -27 -9 8 -4 64 5 64 2 0 4 -17 4 -37z m-4645 -40
c-53 -309 -74 -399 -130 -537 -51 -128 -155 -331 -213 -416 l-37 -55 -84 0
c-78 0 -115 10 -117 32 0 4 -14 35 -30 68 -27 55 -29 69 -29 170 0 96 4 118
27 172 75 177 295 410 505 534 54 32 101 58 105 59 4 0 5 -12 3 -27z m4629
-133 c-7 -58 -24 -152 -37 -210 l-22 -104 -37 -11 c-20 -5 -40 -13 -44 -17 -4
-5 -20 -8 -35 -8 -15 0 -40 -5 -55 -10 -15 -6 -28 -9 -31 -7 -2 2 18 35 43 73
47 68 154 283 189 377 14 41 20 47 30 35 11 -11 11 -32 -1 -118z m-4568 -42
c-17 -224 -88 -432 -206 -602 -52 -75 -179 -220 -187 -213 -2 3 12 30 31 60
101 157 231 460 307 712 49 166 65 178 55 43z m868 -263 l34 -47 -35 -97 c-37
-104 -110 -287 -123 -310 -8 -15 -21 0 -53 63 -13 27 -12 34 20 103 33 72 82
214 104 302 5 23 12 41 15 38 2 -2 20 -26 38 -52z m3629 -67 c-27 -122 -123
-358 -174 -429 -28 -40 -32 -32 -52 101 -25 165 -31 276 -15 286 19 12 95 34
150 43 26 4 51 10 55 14 3 4 14 7 24 7 13 0 16 -6 12 -22z m-3553 -45 c0 -22
-79 -286 -89 -296 -26 -26 -21 13 18 150 22 82 41 159 41 172 0 24 0 24 15 5
8 -10 15 -24 15 -31z m3291 -198 c28 -285 107 -549 278 -924 34 -74 60 -135
59 -137 -2 -1 -28 -5 -58 -8 l-55 -7 -29 63 c-16 35 -55 122 -88 193 -32 72
-68 148 -78 170 -38 81 -64 143 -102 245 -33 89 -38 98 -34 59 3 -25 26 -99
51 -164 37 -96 45 -129 45 -183 0 -37 5 -98 10 -136 6 -38 9 -71 7 -73 -10 -9
-154 473 -186 621 -19 85 -20 108 -11 179 5 45 10 85 10 90 0 5 37 47 83 93
78 79 82 82 84 56 2 -15 8 -76 14 -137z m-3017 -11 c60 -31 81 -64 41 -64 -16
0 -51 26 -107 81 -62 60 -71 72 -36 46 26 -19 72 -47 102 -63z m2797 -47 c-30
-61 -86 -123 -118 -132 -43 -10 -152 -74 -197 -115 -68 -61 -87 -70 -143 -70
-31 0 -53 4 -53 11 0 14 80 149 89 149 3 0 16 3 28 6 23 6 23 6 8 -30 -23 -54
-17 -57 10 -4 19 36 33 49 62 59 21 6 71 27 112 46 64 29 72 30 55 12 -10 -12
-53 -41 -95 -66 -42 -24 -91 -57 -110 -74 -31 -28 -32 -29 -4 -11 17 11 69 43
116 71 48 28 99 65 114 83 26 32 136 118 144 112 2 -2 -6 -23 -18 -47z m-2812
-64 c2 -65 4 -81 33 -238 21 -118 77 -298 127 -407 33 -74 28 -92 -7 -29 -53
94 -104 275 -150 536 -29 161 -34 219 -18 206 7 -6 13 -36 15 -68z m-510 0
c21 -44 21 -47 4 -56 -9 -6 -59 -48 -110 -94 -52 -47 -93 -77 -93 -69 0 8 25
50 56 93 31 43 68 99 83 125 14 26 28 48 32 48 3 0 15 -21 28 -47z m252 7 c10
-6 19 -15 19 -19 0 -5 -32 -37 -72 -71 l-72 -63 -38 43 c-21 23 -38 46 -38 51
0 17 119 67 163 68 10 1 27 -4 38 -9z m3399 -91 c-33 -69 -40 -80 -40 -55 0
15 58 116 66 116 2 0 -10 -27 -26 -61z m-5338 -89 c11 -36 31 -85 44 -109 13
-24 24 -45 24 -47 0 -2 -18 -4 -39 -4 -39 0 -39 0 -50 49 -6 27 -13 94 -16
148 -4 80 -3 92 6 63 6 -19 20 -64 31 -100z m502 17 l29 -13 -32 -27 c-31 -25
-33 -26 -57 -11 -34 23 -30 32 14 37 l37 4 -41 -1 c-26 -1 -41 3 -41 12 0 16
53 15 91 -1z m223 -58 c136 -48 263 -104 262 -116 0 -4 -22 -50 -48 -102 l-48
-95 -7 36 c-10 53 -47 85 -104 90 -55 5 -105 -8 -128 -33 -15 -17 -18 -16 -61
17 -58 44 -86 44 -133 -4 -40 -40 -65 -104 -75 -196 -10 -89 -14 -98 -34 -91
-12 4 -33 -6 -61 -30 -24 -20 -51 -40 -61 -46 -17 -8 -19 -6 -19 20 0 30 52
213 90 313 15 40 31 62 62 86 70 52 147 120 142 125 -9 8 66 67 86 67 10 0 72
-19 137 -41z m-298 7 l23 -25 -41 -20 c-22 -12 -42 -21 -45 -21 -3 0 2 20 12
45 9 25 19 45 22 45 4 0 17 -11 29 -24z m879 -5 c20 -10 56 -36 79 -57 l43
-39 -56 -75 c-31 -41 -59 -76 -64 -78 -9 -3 -140 67 -140 75 0 14 86 193 93
193 4 0 24 -9 45 -19z m462 -42 c-14 -39 -18 -44 -14 -19 8 44 23 84 29 78 3
-2 -4 -29 -15 -59z m-304 -4 c-9 -14 -22 -23 -27 -19 -6 4 -2 15 12 30 28 30
37 23 15 -11z m-1561 -77 c53 -17 95 -22 175 -22 117 1 195 18 299 65 l65 30
-29 -32 c-45 -48 -153 -115 -226 -139 -154 -53 -347 16 -450 161 l-20 28 58
-35 c32 -19 90 -45 128 -56z m1969 -218 c8 -69 12 -127 10 -129 -7 -8 -119 20
-131 32 -11 11 -3 46 39 192 l53 180 7 -75 c5 -41 14 -131 22 -200z m-2078
188 l29 -33 -32 29 c-18 17 -33 31 -33 33 0 8 8 1 36 -29z m1843 -34 c-14 -60
-19 -66 -41 -50 -16 12 -15 16 15 59 17 25 33 44 35 43 1 -2 -2 -25 -9 -52z
m2903 -81 c-9 -70 -12 -173 -10 -355 l4 -257 -21 18 c-35 33 -104 64 -130 59
-14 -3 -25 -4 -25 -3 0 18 48 236 70 320 39 148 103 315 120 315 3 0 0 -44 -8
-97z m-4691 70 c13 -16 12 -17 -3 -4 -10 7 -18 15 -18 17 0 8 8 3 21 -13z
m1378 -38 c34 -20 61 -40 61 -46 0 -5 -18 -38 -40 -73 -44 -69 -114 -140 -133
-133 -21 7 -19 96 3 169 26 85 38 118 44 118 3 0 32 -16 65 -35z m-954 -12
c-21 -49 -22 -50 -47 -25 -26 25 -16 42 14 23 19 -12 20 -11 15 8 -4 18 4 28
26 30 4 1 0 -16 -8 -36z m-57 -34 l34 -30 -26 -82 c-14 -45 -28 -94 -32 -109
-3 -16 -8 -28 -10 -28 -2 0 -20 17 -40 38 -29 31 -124 202 -124 225 0 3 30 8
68 10 37 2 74 4 82 5 8 1 30 -12 48 -29z m-213 -69 c10 -11 16 -20 13 -20 -3
0 -13 9 -23 20 -10 11 -16 20 -13 20 3 0 13 -9 23 -20z m2733 -5 c-3 -3 -9 2
-12 12 -6 14 -5 15 5 6 7 -7 10 -15 7 -18z m220 -177 c97 -67 194 -134 214
-150 47 -37 59 -35 273 39 201 70 209 73 330 122 54 23 101 41 102 41 2 0 -10
-27 -27 -60 -17 -33 -31 -63 -32 -67 -1 -5 -9 -32 -18 -62 l-15 -54 -110 -34
c-61 -18 -173 -51 -250 -73 -77 -21 -187 -52 -244 -69 l-104 -29 -90 87 c-49
47 -122 124 -162 171 l-73 86 9 54 c5 30 6 72 3 94 -4 27 -3 37 5 32 6 -4 91
-62 189 -128z m2383 -58 c51 -105 74 -162 66 -165 -43 -14 -87 -22 -91 -17 -8
16 -28 120 -61 326 -3 16 -2 27 1 23 4 -3 42 -79 85 -167z m-2613 139 c27 -10
28 -25 3 -63 -15 -23 -17 -34 -9 -57 5 -15 82 -102 171 -193 l162 -166 -34
-17 c-21 -11 -51 -43 -76 -82 l-41 -63 -105 -4 c-57 -1 -148 -12 -203 -23 -54
-12 -102 -21 -107 -21 -19 0 -176 257 -194 317 -4 16 0 27 15 40 12 10 64 77
115 148 51 72 111 147 134 168 40 36 44 37 94 31 29 -4 62 -11 75 -15z m1919
-31 c-2 -13 -4 -5 -4 17 -1 22 1 32 4 23 2 -10 2 -28 0 -40z m-4317 -58 c-11
-20 -48 -45 -56 -37 -5 4 53 57 62 57 3 0 0 -9 -6 -20z m4421 -285 c18 -55 46
-132 64 -171 27 -58 30 -73 20 -87 -12 -17 -24 -12 -78 33 -11 9 -44 169 -66
328 -27 184 -25 211 5 92 13 -52 38 -140 55 -195z m-94 213 c-3 -8 -6 -5 -6 6
-1 11 2 17 5 13 3 -3 4 -12 1 -19z m-560 -73 c-27 -78 -47 -107 -47 -70 0 15
67 155 74 155 1 0 -10 -38 -27 -85z m-171 57 c25 -17 42 -342 25 -491 -12 -99
-16 -102 -268 -197 l-93 -35 -62 44 c-35 25 -85 56 -113 70 -54 27 -227 87
-251 87 -12 0 -13 13 -8 79 5 62 3 85 -9 110 -12 24 -13 33 -4 35 7 2 80 21
162 41 167 41 263 68 430 120 l114 36 -2 54 -2 55 35 0 c19 0 40 -4 46 -8z
m741 -79 c-3 -10 -5 -2 -5 17 0 19 2 27 5 18 2 -10 2 -26 0 -35z m57 -286 c13
-44 13 -48 -2 -45 -13 3 -20 29 -34 128 -22 168 -21 211 3 75 10 -60 25 -132
33 -158z m1016 216 c14 -18 65 -192 57 -199 -1 -1 -54 3 -117 8 -135 11 -342
-3 -482 -31 -51 -11 -93 -19 -94 -18 -1 1 -8 26 -17 56 l-15 53 91 43 c171 80
324 115 480 112 68 -2 81 -5 97 -24z m-1360 -143 c11 -21 20 -42 20 -44 0 -5
-45 11 -58 20 -5 3 8 64 14 64 2 0 13 -18 24 -40z m-4193 -23 l-12 -48 -29 30
-28 29 38 20 c22 11 40 19 41 18 1 -1 -3 -23 -10 -49z m-48 -46 l44 -39 -7
-78 c-8 -82 -43 -182 -100 -282 l-31 -54 -3 54 c-7 111 28 438 46 438 4 0 27
-18 51 -39z m2991 -46 l0 -74 -30 17 c-35 20 -36 32 -10 90 28 62 40 53 40
-33z m-73 15 c-8 -42 -13 -50 -32 -50 -22 0 -22 2 -12 43 10 42 22 57 43 57 8
0 8 -14 1 -50z m2628 40 c182 -17 278 -36 337 -66 27 -14 28 -17 28 -98 0 -89
-24 -223 -64 -359 -41 -139 -43 -141 -51 -71 -9 73 -19 94 -36 77 -7 -7 -26
-10 -43 -7 -28 4 -23 -1 11 -11 9 -3 9 -12 -2 -38 -8 -19 -19 -77 -26 -128
-15 -129 -29 -199 -39 -199 -4 0 -13 21 -19 47 -23 89 -98 135 -276 168 -50 9
-120 25 -156 37 -50 15 -74 18 -95 12 -16 -5 -41 -8 -56 -6 -27 3 -28 5 -28
70 0 37 -3 78 -7 91 l-6 24 174 -6 c96 -4 219 -14 274 -22 159 -24 173 -25
115 -10 -86 23 -303 45 -435 45 l-120 0 -18 123 c-10 67 -22 155 -28 196 -9
58 -8 75 2 82 20 12 184 40 284 49 128 10 167 10 280 0z m-2687 -52 c-17 -48
-68 -92 -68 -58 0 13 60 90 70 90 5 0 4 -13 -2 -32z m1909 -76 c-31 -33 -33
-42 -10 -42 9 0 14 3 10 6 -6 6 16 34 26 34 3 0 11 -46 18 -102 15 -120 15
-344 -1 -440 -11 -60 -39 -118 -59 -118 -16 0 -49 89 -61 166 -13 79 -12 83
18 201 18 67 32 138 32 160 0 21 8 49 17 62 9 14 12 21 6 18 -6 -4 -22 8 -36
27 -27 35 -26 55 2 33 14 -11 14 -10 2 6 -12 16 -11 21 15 48 l29 30 9 -31 c8
-26 5 -35 -17 -58z m-189 52 c12 -4 29 -19 38 -35 8 -16 20 -29 27 -29 8 0 7
4 -3 10 -8 5 -10 10 -5 10 6 0 30 -17 54 -38 l44 -38 -11 -60 c-7 -32 -22 -97
-34 -143 l-22 -84 -12 39 c-49 159 -81 248 -110 306 -34 67 -34 68 -12 68 13
0 33 -3 46 -6z m-190 -244 c80 -228 107 -401 100 -632 -3 -122 -6 -137 -30
-179 -34 -58 -63 -73 -119 -64 -56 9 -199 81 -199 99 0 8 36 160 79 338 94
383 121 500 121 524 0 32 17 1 48 -86z m-1959 -419 c-35 -50 -64 -89 -66 -88
-8 9 21 128 34 139 17 14 86 47 91 43 2 -2 -25 -44 -59 -94z m2641 84 c0 -10
-30 -65 -35 -65 -3 0 -5 16 -5 35 0 28 4 35 20 35 11 0 20 -2 20 -5z m-4850
-443 c-9 -3 -9 -6 0 -12 7 -4 11 -13 8 -20 -2 -8 -11 -6 -28 8 l-24 20 24 53
25 53 3 -49 c2 -32 -1 -51 -8 -53z"/>
<path d="M3469 5873 c-13 -16 -12 -17 4 -4 9 7 17 15 17 17 0 8 -8 3 -21 -13z"/>
<path d="M3872 5433 c-5 -10 -19 -48 -29 -84 -11 -36 -38 -92 -60 -125 -22
-32 -54 -86 -71 -119 -17 -33 -59 -91 -93 -130 -149 -167 -271 -351 -373 -568
-67 -140 -98 -221 -127 -327 -27 -100 -22 -28 6 85 87 355 282 738 519 1020
80 95 104 138 36 64 -62 -67 -172 -215 -231 -309 -29 -47 -67 -101 -84 -120
-159 -182 -380 -600 -480 -910 -15 -47 -31 -89 -35 -93 -19 -21 -26 340 -9
509 16 172 69 437 105 528 5 13 4 17 -3 13 -12 -8 -73 -161 -102 -257 -148
-493 -170 -944 -66 -1305 48 -163 133 -321 222 -411 51 -51 46 -56 -18 -15
-96 61 -198 188 -256 319 -49 109 -103 272 -123 373 -17 84 -21 137 -20 313 0
239 -13 369 -38 364 -26 -5 -34 -55 -39 -260 -9 -325 36 -525 166 -742 27 -45
69 -119 94 -166 25 -47 50 -84 55 -83 12 3 87 -86 79 -93 -3 -3 -20 15 -38 40
-18 25 -34 44 -37 41 -9 -9 72 -106 156 -186 93 -89 213 -165 272 -174 30 -4
31 -4 9 4 -51 17 -135 63 -184 101 -81 63 -153 133 -160 157 -6 21 -2 20 45
-12 57 -38 147 -69 182 -62 19 4 19 4 -5 6 -42 2 -77 24 -128 78 -97 104 -114
141 -143 318 -15 88 -35 192 -45 232 -17 64 -17 80 -6 140 41 216 126 465 225
665 45 90 64 120 73 112 3 -3 15 0 27 6 12 6 24 9 27 7 2 -3 -7 -40 -20 -84
-35 -110 -55 -211 -67 -332 -14 -145 -11 -209 5 -96 6 50 24 135 39 190 30
110 112 325 130 338 6 5 56 6 111 4 70 -3 86 -2 55 4 -36 6 -30 7 30 4 82 -5
187 -33 263 -71 26 -14 47 -22 47 -19 0 10 -97 54 -170 77 -62 19 -97 23 -202
23 -71 0 -128 2 -128 4 0 11 88 164 130 226 94 138 293 357 384 421 21 15 31
33 37 65 21 113 59 270 69 289 6 12 9 24 7 27 -3 2 -10 -4 -15 -14z m-642
-899 c-10 -27 -26 -69 -35 -95 -12 -34 -23 -48 -47 -57 -38 -14 -43 -11 -28
18 24 45 122 191 126 187 2 -2 -5 -26 -16 -53z"/>
<path d="M3951 5179 c-18 -43 -42 -364 -43 -576 -2 -236 18 -457 58 -646 44
-206 116 -402 174 -467 l22 -25 -21 32 c-84 127 -160 387 -197 678 -17 137
-21 474 -6 550 7 38 8 35 21 -50 48 -339 151 -650 286 -861 38 -59 112 -158
103 -139 -2 6 -25 54 -50 107 -58 121 -159 430 -146 444 2 2 17 -27 33 -64 58
-136 176 -324 236 -377 27 -25 19 -10 -42 76 -64 87 -175 312 -194 391 -4 15
-13 29 -21 32 -8 3 -14 10 -14 16 0 6 4 8 10 5 6 -4 6 4 -1 22 -6 15 -24 79
-40 142 -15 63 -34 119 -40 125 -11 11 -9 -19 11 -129 5 -27 17 -97 25 -155
18 -115 76 -313 130 -442 19 -45 35 -85 35 -88 -1 -10 -71 115 -109 195 -81
168 -144 390 -181 634 -24 162 -41 466 -30 536 9 56 5 69 -9 34z"/>
<path d="M3786 5043 c-4 -10 -12 -87 -18 -172 -10 -143 -3 -347 19 -530 4 -35
3 -42 -8 -35 -11 6 -12 5 -2 -8 7 -8 11 -17 8 -20 -3 -3 1 -11 10 -18 8 -7 15
-21 15 -32 0 -32 47 -207 85 -319 42 -120 132 -310 169 -354 14 -16 4 6 -22
51 -117 197 -207 495 -247 814 -16 136 -20 438 -5 560 9 77 7 94 -4 63z"/>
<path d="M6301 4534 c0 -11 3 -14 6 -6 3 7 2 16 -1 19 -3 4 -6 -2 -5 -13z"/>
<path d="M3537 4371 c40 -11 101 -32 135 -46 90 -37 99 -39 48 -12 -55 30
-161 66 -215 73 -24 3 -11 -3 32 -15z"/>
<path d="M4952 3930 c0 -19 2 -27 5 -17 2 9 2 25 0 35 -3 9 -5 1 -5 -18z"/>
<path d="M3313 3683 c9 -2 23 -2 30 0 6 3 -1 5 -18 5 -16 0 -22 -2 -12 -5z"/>
<path d="M3408 3683 c7 -3 16 -2 19 1 4 3 -2 6 -13 5 -11 0 -14 -3 -6 -6z"/>
<path d="M3185 3620 c-22 -6 -55 -10 -74 -11 -22 -1 -29 -4 -20 -9 19 -12 -33
-24 -74 -17 -31 5 -31 5 -6 -5 l26 -11 -38 -34 c-39 -36 -102 -139 -96 -158 2
-5 11 4 20 20 8 17 31 46 51 64 l36 35 0 -30 c0 -16 -12 -51 -25 -79 -13 -27
-23 -51 -21 -53 4 -3 40 54 49 78 4 11 6 10 6 -4 1 -10 -9 -34 -20 -53 -32
-51 -17 -50 20 2 46 65 137 107 242 113 67 4 90 1 152 -21 110 -39 165 -73
246 -154 40 -40 75 -73 76 -73 2 0 -6 17 -16 37 -10 21 -19 46 -19 58 0 18 3
16 25 -10 l24 -30 -24 49 c-27 52 -31 82 -15 106 8 13 11 12 24 -5 9 -11 16
-15 16 -9 0 20 -105 111 -161 139 -99 50 -159 66 -264 70 -55 2 -118 0 -140
-5z m95 -52 c0 -16 -31 -48 -47 -48 -16 0 -17 32 -1 48 15 15 48 16 48 0z m46
-14 c-3 -9 -6 -18 -6 -20 0 -2 -7 -4 -15 -4 -18 0 -19 12 -3 28 17 17 31 15
24 -4z"/>
<path d="M3635 3610 c3 -5 8 -10 11 -10 2 0 4 5 4 10 0 6 -5 10 -11 10 -5 0
-7 -4 -4 -10z"/>
<path d="M4670 3440 c-8 -5 -10 -10 -5 -10 6 0 17 5 25 10 8 5 11 10 5 10 -5
0 -17 -5 -25 -10z"/>
<path d="M4700 3370 c-77 -10 -154 -38 -211 -80 -48 -34 -46 -37 11 -14 23 9
43 14 46 11 3 -3 -2 -22 -10 -42 -9 -20 -14 -41 -11 -45 3 -4 -3 -14 -13 -21
-16 -13 -16 -13 -2 5 12 16 9 15 -17 -4 -37 -27 -43 -36 -13 -20 14 8 20 8 20
0 0 -6 12 -4 31 5 45 24 181 45 285 45 180 0 319 -72 394 -204 l29 -49 -5 44
-4 44 13 -42 c17 -58 27 -64 15 -9 -21 99 7 133 50 61 l23 -40 -6 40 c-4 22
-15 55 -26 73 -10 18 -19 40 -19 48 0 8 -6 14 -14 14 -7 0 -19 6 -25 14 -10
11 -8 15 6 19 12 3 10 5 -8 6 -15 0 -37 10 -50 20 -118 92 -314 141 -489 121z
m134 -49 c8 -12 -32 -61 -50 -61 -21 0 -17 26 8 50 24 22 34 25 42 11z m39
-36 c-5 -16 -33 -21 -33 -7 0 13 22 32 31 26 5 -2 6 -11 2 -19z m19 -17 c-7
-7 -12 -8 -12 -2 0 6 3 14 7 17 3 4 9 5 12 2 2 -3 -1 -11 -7 -17z"/>
<path d="M3755 2637 c-62 -29 -85 -83 -84 -191 0 -39 6 -89 14 -111 l13 -40
-6 50 c-4 28 -7 82 -7 122 0 62 3 75 24 97 13 14 44 33 69 43 42 16 47 16 91
-1 87 -34 146 -46 270 -56 68 -6 131 -15 141 -20 9 -5 30 -26 45 -46 70 -92
26 -236 -95 -316 -23 -15 -23 -16 -3 -11 68 16 161 154 171 252 4 43 1 52 -28
84 -70 80 -269 145 -465 153 -90 3 -128 1 -150 -9z m62 -3 c-3 -3 -12 -4 -19
-1 -8 3 -5 6 6 6 11 1 17 -2 13 -5z m303 -30 c52 -14 102 -30 110 -35 24 -14
-106 -11 -195 5 -78 14 -195 52 -195 63 0 14 193 -9 280 -33z"/>
<path d="M3700 2281 c0 -6 4 -13 10 -16 6 -3 7 1 4 9 -7 18 -14 21 -14 7z"/>
<path d="M6468 893 c6 -2 18 -2 25 0 6 3 1 5 -13 5 -14 0 -19 -2 -12 -5z"/>
<path d="M1105 4518 c-11 -6 -52 -40 -92 -74 -40 -34 -98 -80 -130 -102 -59
-40 -354 -202 -369 -202 -11 0 -334 -163 -431 -218 -46 -26 -83 -53 -83 -59 0
-7 2 -13 5 -13 3 0 49 25 103 56 53 31 229 121 390 200 338 165 430 222 550
339 87 84 95 95 57 73z"/>
<path d="M1755 4434 c-95 -74 -404 -282 -490 -329 -38 -21 -133 -77 -210 -125
-77 -48 -219 -131 -315 -185 -320 -179 -492 -289 -635 -405 -81 -67 -108 -95
-104 -108 2 -5 46 25 97 68 129 109 199 152 427 270 110 57 206 107 213 113 7
5 15 8 17 5 3 -2 -25 -28 -60 -57 -111 -88 -264 -241 -332 -331 -35 -47 -91
-139 -123 -205 -136 -274 -159 -536 -73 -808 13 -43 22 -81 20 -83 -7 -7 -127
106 -159 150 -18 25 -28 33 -28 22 0 -22 100 -128 158 -168 31 -21 52 -48 77
-98 19 -38 35 -72 35 -75 0 -3 -27 -5 -59 -5 -51 0 -130 18 -195 45 -13 6 -17
5 -12 -3 13 -22 136 -52 210 -52 l73 0 37 -54 c59 -85 192 -206 266 -242 90
-44 210 -68 210 -43 0 5 -4 8 -9 5 -5 -3 -35 -1 -67 5 -256 47 -496 357 -559
723 -38 221 -6 429 100 651 141 294 440 575 941 882 317 195 552 364 606 435
58 77 40 78 -57 2z"/>
<path d="M1456 2034 c-4 -9 -4 -19 -1 -22 2 -3 7 3 11 12 4 9 4 19 1 22 -2 3
-7 -3 -11 -12z"/>
<path d="M920 1770 c-8 -6 -34 -15 -58 -21 -23 -7 -41 -14 -38 -16 7 -7 80 15
101 31 22 17 18 21 -5 6z"/>
<path d="M2737 1398 c-50 -162 -78 -270 -74 -282 2 -6 10 14 17 44 7 30 30
113 51 184 21 71 37 131 35 134 -2 2 -16 -34 -29 -80z"/>
<path d="M3011 1374 c0 -11 3 -14 6 -6 3 7 2 16 -1 19 -3 4 -6 -2 -5 -13z"/>
<path d="M2967 1203 c-43 -177 -117 -538 -116 -561 0 -10 27 107 59 258 32
151 68 313 80 359 11 46 19 85 17 88 -3 2 -21 -62 -40 -144z"/>
<path d="M1810 1316 c0 -9 122 -96 134 -96 6 0 -17 19 -49 43 -72 52 -85 60
-85 53z"/>
<path d="M1155 1259 c-4 -6 -5 -12 -2 -15 2 -3 7 2 10 11 7 17 1 20 -8 4z"/>
<path d="M4693 1125 c0 -22 2 -30 4 -17 2 12 2 30 0 40 -3 9 -5 -1 -4 -23z"/>
<path d="M2651 1084 c0 -11 3 -14 6 -6 3 7 2 16 -1 19 -3 4 -6 -2 -5 -13z"/>
<path d="M4682 1050 c0 -19 2 -27 5 -17 2 9 2 25 0 35 -3 9 -5 1 -5 -18z"/>
<path d="M2620 965 c-12 -53 -20 -98 -18 -101 3 -2 15 39 27 92 12 53 20 98
18 101 -3 2 -14 -40 -27 -92z"/>
<path d="M4665 950 c-4 -34 -5 -63 -2 -66 2 -3 7 23 11 57 4 33 5 63 3 66 -3
2 -8 -23 -12 -57z"/>
<path d="M4995 965 c-3 -26 -4 -49 -2 -51 3 -3 8 16 12 41 3 26 4 49 2 51 -3
3 -8 -16 -12 -41z"/>
<path d="M2386 944 c-10 -31 -16 -58 -14 -60 3 -2 12 21 22 52 10 31 16 58 14
60 -3 2 -12 -21 -22 -52z"/>
<path d="M4975 855 c-3 -26 -4 -49 -2 -51 3 -3 8 16 12 41 3 26 4 49 2 51 -3
3 -8 -16 -12 -41z"/>
<path d="M2341 794 c-13 -41 -21 -77 -19 -79 2 -3 14 30 27 72 12 41 20 77 18
79 -2 3 -14 -30 -26 -72z"/>
<path d="M4645 815 c-3 -31 -5 -59 -2 -61 3 -3 8 20 12 51 3 31 5 59 2 61 -3
3 -8 -20 -12 -51z"/>
<path d="M2586 814 c-4 -20 -5 -38 -3 -40 3 -3 8 11 11 32 4 20 5 38 3 40 -3
3 -8 -11 -11 -32z"/>
<path d="M4946 684 c-10 -58 -16 -108 -13 -110 2 -2 12 43 21 102 10 58 16
108 13 110 -2 2 -12 -43 -21 -102z"/>
<path d="M2572 740 c0 -14 2 -19 5 -12 2 6 2 18 0 25 -3 6 -5 1 -5 -13z"/>
<path d="M4625 685 c-3 -31 -5 -59 -2 -61 3 -3 8 20 12 51 3 31 5 59 2 61 -3
3 -8 -20 -12 -51z"/>
<path d="M2546 624 c-10 -47 -15 -88 -13 -90 2 -3 12 34 21 82 10 47 15 88 13
90 -2 3 -12 -34 -21 -82z"/>
<path d="M2301 659 c-7 -22 -11 -43 -8 -45 2 -2 9 14 16 37 7 22 11 43 8 45
-2 2 -9 -14 -16 -37z"/>
<path d="M4295 650 c-4 -28 -5 -53 -2 -56 2 -3 7 19 11 47 4 28 5 53 3 56 -3
2 -8 -19 -12 -47z"/>
<path d="M2842 600 c0 -14 2 -19 5 -12 2 6 2 18 0 25 -3 6 -5 1 -5 -13z"/>
<path d="M4612 585 c0 -16 2 -22 5 -12 2 9 2 23 0 30 -3 6 -5 -1 -5 -18z"/>
<path d="M5930 590 c0 -8 7 -40 15 -70 22 -83 18 -130 -21 -251 -19 -61 -34
-113 -32 -115 3 -2 22 51 44 119 41 129 45 171 23 260 -13 52 -29 84 -29 57z"/>
<path d="M4271 494 c-8 -47 -11 -87 -9 -90 3 -2 10 34 18 82 7 47 10 87 8 90
-3 2 -10 -34 -17 -82z"/>
<path d="M2821 499 c-7 -38 -11 -72 -9 -75 3 -2 10 28 17 67 7 38 11 72 9 75
-3 2 -10 -28 -17 -67z"/>
<path d="M4906 454 c-10 -58 -16 -108 -13 -110 2 -2 12 43 21 102 10 58 16
108 13 110 -2 2 -12 -43 -21 -102z"/>
<path d="M4586 439 c-10 -61 -16 -113 -13 -115 2 -3 12 45 22 106 10 61 16
113 13 115 -2 3 -12 -45 -22 -106z"/>
<path d="M2515 475 c-3 -26 -4 -49 -2 -51 3 -3 8 16 12 41 3 26 4 49 2 51 -3
3 -8 -16 -12 -41z"/>
<path d="M2495 365 c-3 -26 -4 -49 -2 -51 3 -3 8 16 12 41 3 26 4 49 2 51 -3
3 -8 -16 -12 -41z"/>
<path d="M2795 365 c-3 -26 -4 -49 -2 -51 3 -3 8 16 12 41 3 26 4 49 2 51 -3
3 -8 -16 -12 -41z"/>
<path d="M4252 365 c0 -16 2 -22 5 -12 2 9 2 23 0 30 -3 6 -5 -1 -5 -18z"/>
<path d="M4242 305 c0 -16 2 -22 5 -12 2 9 2 23 0 30 -3 6 -5 -1 -5 -18z"/>
<path d="M4562 285 c0 -16 2 -22 5 -12 2 9 2 23 0 30 -3 6 -5 -1 -5 -18z"/>
<path d="M2482 275 c0 -16 2 -22 5 -12 2 9 2 23 0 30 -3 6 -5 -1 -5 -18z"/>
<path d="M2782 275 c0 -16 2 -22 5 -12 2 9 2 23 0 30 -3 6 -5 -1 -5 -18z"/>
<path d="M6283 153 c1 -84 5 -153 10 -153 10 0 8 215 -3 265 -6 28 -8 -7 -7
-112z"/>
<path d="M4232 245 c0 -16 2 -22 5 -12 2 9 2 23 0 30 -3 6 -5 -1 -5 -18z"/>
<path d="M4541 174 c-7 -41 -11 -78 -8 -80 2 -3 10 30 16 72 7 41 11 78 8 80
-2 3 -10 -30 -16 -72z"/>
<path d="M2472 215 c0 -16 2 -22 5 -12 2 9 2 23 0 30 -3 6 -5 -1 -5 -18z"/>
<path d="M2753 120 c-11 -67 -17 -117 -13 -113 9 10 43 223 37 229 -2 2 -13
-50 -24 -116z"/>
<path d="M4610 210 c12 -23 70 -46 151 -60 94 -16 89 -11 73 -77 -16 -69 -17
-76 -5 -69 5 4 12 28 16 54 7 52 19 80 28 65 3 -5 0 -31 -8 -58 -18 -60 -18
-65 -1 -65 10 0 19 19 26 55 6 30 15 57 19 59 12 8 93 -33 147 -75 63 -48 92
-52 38 -5 -79 70 -184 110 -369 141 -22 3 -59 17 -82 30 -37 20 -42 21 -33 5z"/>
<path d="M4222 185 c0 -16 2 -22 5 -12 2 9 2 23 0 30 -3 6 -5 -1 -5 -18z"/>
<path d="M2462 155 c0 -16 2 -22 5 -12 2 9 2 23 0 30 -3 6 -5 -1 -5 -18z"/>
<path d="M4212 130 c0 -14 2 -19 5 -12 2 6 2 18 0 25 -3 6 -5 1 -5 -13z"/>
<path d="M5580 147 c0 -2 15 -16 33 -33 l32 -29 -29 33 c-28 30 -36 37 -36 29z"/>
<path d="M5876 124 c-10 -27 -6 -78 8 -96 18 -25 29 -10 11 15 -10 14 -13 33
-9 59 7 39 1 51 -10 22z"/>
<path d="M2452 90 c0 -14 2 -19 5 -12 2 6 2 18 0 25 -3 6 -5 1 -5 -13z"/>
<path d="M4202 70 c0 -14 2 -19 5 -12 2 6 2 18 0 25 -3 6 -5 1 -5 -13z"/>
<path d="M1174 70 c-21 -8 -54 -46 -54 -62 0 -5 25 -8 55 -8 59 0 60 1 45 31
-14 25 -7 25 176 -6 175 -30 246 -32 134 -4 -41 10 -122 25 -180 34 -58 9
-116 18 -130 20 -14 2 -35 0 -46 -5z"/>
<path d="M4522 55 c0 -16 2 -22 5 -12 2 9 2 23 0 30 -3 6 -5 -1 -5 -18z"/>
<path d="M2442 25 c0 -17 2 -22 5 -12 2 9 2 23 0 30 -3 6 -5 -1 -5 -18z"/>
<path d="M4191 14 c0 -11 3 -14 6 -6 3 7 2 16 -1 19 -3 4 -6 -2 -5 -13z"/>
</g>
</svg>
